<?xml version="1.0" standalone="no"?>
<!DOCTYPE svg PUBLIC "-//W3C//DTD SVG 20010904//EN"
 "http://www.w3.org/TR/2001/REC-SVG-20010904/DTD/svg10.dtd">
<svg version="1.0" xmlns="http://www.w3.org/2000/svg"
 width="131.000000pt" height="131.000000pt" viewBox="0 0 131.000000 131.000000"
 preserveAspectRatio="xMidYMid meet">

<g transform="translate(0.000000,131.000000) scale(0.100000,-0.100000)"
fill="#000000" stroke="none">
<path d="M575 1049 c-81 -28 -146 -78 -193 -149 -49 -73 -66 -141 -59 -234 12
-163 113 -286 271 -331 216 -63 449 97 472 322 4 34 4 73 0 87 l-6 26 -180 0
-180 0 0 -65 0 -65 95 0 95 0 -12 -27 c-20 -47 -77 -117 -120 -146 -52 -34
-58 -34 -58 3 0 25 -4 30 -25 30 -34 0 -94 26 -124 53 -59 54 -79 172 -42 245
27 52 62 82 123 103 29 10 47 18 41 19 -28 0 -11 20 17 20 30 0 41 -14 18 -23
-7 -3 -4 -6 8 -6 11 -1 43 -12 70 -26 l49 -25 73 31 c51 23 72 37 70 48 -5 27
-101 91 -167 111 -80 25 -160 25 -236 -1z"/>
</g>
</svg>
